# xmcd
#
# Track frame offsets: 
#        182
#        14797
#        30900
#        50755
#        67982
#        83567
#        105860
#        124987
#        145115
#        162312
#        185210
#        202437
#
# Disc length: 3051 seconds
#
# Revision: 20
# Processed by: cddbd v1.5.2PL0 Copyright (c) Steve Scherf et al.
# Submitted via: ExactAudioCopy v1.3
#
DISCID=aa0be90c
DTITLE=Faith Hill - Faith
DYEAR=1998
DGENRE=Country
TTITLE0=This Kiss
TTITLE1=You Give Me Love
TTITLE2=Let Me Let Go
TTITLE3=Love Ain't Like That
TTITLE4=Better Days
TTITLE5=My Wild Frontier
TTITLE6=The Secret Of Life
TTITLE7=Just To Hear You Say That You Love Me with Tim McGraw
TTITLE8=Me
TTITLE9=I Love You
TTITLE10=The Hard Way
TTITLE11=Somebody Stand By Me
EXTD=
EXTT0=
EXTT1=
EXTT2=
EXTT3=
EXTT4=
EXTT5=
EXTT6=
EXTT7=
EXTT8=
EXTT9=
EXTT10=
EXTT11=
PLAYORDER=
